<?xml version="1.0" encoding="UTF-8"?>
<svg version="1.1" viewBox="0 0 2048 2048" width="2048" height="2048" xmlns="http://www.w3.org/2000/svg">
<path transform="translate(0)" d="m0 0h2048v2048h-2048z" fill="#FEFEFD"/>
<path transform="translate(502,279)" d="m0 0h12l27 3 12 3h13l13-2h9l13 3h12l16-2 22-1 22-3 5-1h16l25 4 9 1 17-5h3v14l-3 21v13l3 11v6l-8 16 1 10 1 5v27l-3 31-1 13 3 14 2 21v23l-3 10-6 10v9l2 14 6 19-1 19-3 12-3 8 2 12 2 6v13l-1 10v10l1 14-6 15v30l2 12-1 14-1 9v23l3 15-1 9-3 10v9l3 11v14l-4 36-2 14 1 13 1 10-4 12-1 2 1 38 1 11 1 27v70l-5 13-3 6 2 6 7 15-1 5-5 13 1 10 3 14 1 19-3 10-4 14-1 7v14l4 27v11l-7 16 3 9 4 9-1 8-7 13 1 10 3 15 1 6v12l-5 15 1 7 5 15v20l-4 12-3 7 2 13 1 4v7l-3 12v45l-2 10v9l2 9v13l-6 13 3 11 3 8-1 10-1 5v14l2 7-1 7-6 14v7l4 19 1 17-3 9-1 5v12l-2 10h-29l-10 3-12 3-10-1-10-2-10-1-24 5-10-1-13-4h-10l-13 6-11 3-17-3-37-1-13-4-11-3h-6l-2 1-14 1h-20l1-11 1-5v-10l-7-19-5-24-3-15-7-11-7-9 1-13 1-11-10-30-3-14-2-18-10-18v-13l1-3v-8l-12-21-5-10v-9l2-7v-8l-7-7-9-3-42-7h-37l-16-3 3 16 1 30 5 19 7 16 3 15v35l3 16 5 16 1 5 2 40 6 34 4 10 5 11 3 17-4 13-2 4 1 6 6 10v3l-20-4h-18l-28 4h-7l-1-37-1-3 1-3 1-13v-10l-2-20-4-29-4-13-6-13 2-10 3-12-7-19-1-5v-21l2-9v-10l-5-16-6-20 1-9 2-8v-10l-4-12-3-19-1-19-1-3-1-38-2-14-2-9v-12l1-4v-11l-3-9-1-5 1-13 1-4v-10l-2-11v-27l-9-36-1-26-3-19 2-25 1-6v-10l-8-16 1-8 2-11-1-8-4-11v-9l5-14-3-10-4-12-3-13v-15l2-6v-11l-6-26-1-4v-13l2-9-1-10-6-30v-8l3-12-1-9-8-29-2-13v-14l4-20v-34l-5-24-5-17v-19l2-18v-7l-9-15-1-8 4-13-1-9-4-11-3-17 1-14 1-5v-47l-5-32-1-24-7-20-5-21-1-16 5-14v-7l-5-11v-11l2-6-1-10-4-29v-11l2-1 53-2 15-1 4-1 21 2h20l21-5 26 3 18-2h11l23 7h6l10-3 12-3 23-2 10 1 16 4h24l32-3 30-1z" fill="#252123"/>
<path transform="translate(1169,311)" d="m0 0h13l31 4 7 2 7-2h44l12 1 11 3 12-1 6-1h14l3 1h11l5-2h8l15 4 12 6 10 1h7l13 5 9 8 21 11 11 9 5 4 5 5 1 4 11 7 4 4 6 18 5 21 7 41 3 21 2 11-1 5 1 38-2 23-4 10-5 7h-2v2l-10 8-12 10-9 4-10 6-10 5-9 6-3 6v8l7 8 9 6 9 10 17 1 5 3 5 4 8 7 9 10 11 14 6 9 2 5 1 18 5 13 1 5v13l5 24 1 11v19l-3 14v8l-4 22-3 10-6 18-2 7 1 4-1 7-5 5-5 6-1 4-11 14-10 9-12 6-8 7-38 14-13 4-21 5-24 2-103 2-28 2-17 1-6 2-7-3-5-5-2-6-2-13v-8l1-3v-18l-2-13v-13l1-8-3-18-1-3-1-22-3-20-2-9-1-23-3-31v-18l1-3v-14l-2-21-3-11-1-64-1-1-1-15-1-49-1-11-2-6 1-21-1-23v-21l2-7-1-10-1-4-2-36-1-11-1-20-1-18 2-4-2-16-3-11-1-7v-27l5-8z" fill="#ED3D32"/>
<path transform="translate(1774,1057)" d="m0 0h9l20 5 16 3 7 3 16 7 11 4 22 15 12 9 7 7 9 11 6 7 8 18 7 14 7 7 1 6v7l10 38 1 8-6 20-1 11 9 31v16l-1 32-2 2 1 10 2 10v44l-2 5v23l3 28-1 41-1 20-2 5 1 9 1 3v51l-5 27-2 7 2 1-8 18-2 6-2 9-4 10-8 9-6 5-7 8-13 12-10 10-11 8-16 8-9 3-34 6-16 3h-7l-20-3-14-2h-9l-6 1-7-2-12-8-14-11-13-7-7-3-18-10-13-7-6-7-1-7-9-14-5-10-2-10-1-24 1-9-2-4-1-8-2-42-1-8v-10l2-7v-14l-2-7-1-18-3-14-1-10-1-53v-122l-1-21-1-4v-11l1-5-3-27-3-13v-18l3-14 8-28 5-12 7-12 8-10 8-9 6-5 7-8 8-6 24-13 5-4 10-4 8-2h6l5 2 5-1 2-2 5-1 24-1z" fill="#EC3C31"/>
<path transform="translate(1088,1047)" d="m0 0h24l12 1 8 2 16 1h78l16 3h11l30 5 20 4 9 2 14 7 9 8 26 16 6 5 14 19 6 10 6 13 3 13 2 27 1 4v20l2 10 5 11 1 9v8l2 7v17l1 10 3 8 7 33v28l-7 14-6 9-8 16-7 6-13 7-8 6-5 10-1 4v18l2 12 6 14 4 16 1 14 1 9 3 4 7 24 9 40 7 34 5 17 4 12 6 39 1 18 2 13-1 8-6 7-5 3h-25l-31 5-17 1-9-2-6-17-2-20-3-24-1-2-1-23-1-8-2-1-2-12-3-16-4-20-2-26-3-15-4-21-3-5-2-11-3-32-2-7-6-9-7-1-51 1-12 2-4 5-6 15-1 7 2 16v30l2 32 2 4v38l1 16 2 11v15l-1 6 4 13 7 20 9 17 1 8-8 5-7 3-27 2-35 8-11 3-18 1-10 2h-9l-5-3-2-7v-10l2-21 1-34v-20l-3-8v-10l3-17v-8l-3-9-2-16-1-3v-22l2-2-1-16-1-11-1-28 3-7-2-10 1-7-4-20-1-8 5-15-3-19-2-8-2-17v-26l-1-5v-35l1-2v-8l-2-6-1-53-1-13v-15l-1-13v-29l-2-17-2-38-5-27-3-22 2-12 5-7 8-4z" fill="#EC3C31"/>
<path transform="translate(905,272)" d="m0 0h18l17 2 48 1 9 3 14 2 10 2 13 1 7 4 3 6 3 21 2 26 5 33 10 40 2 9v9l12 48 10 52 2 16 3 13 4 24 6 18 4 10v2h-2l1 13 4 16 2 16 4 10 1 5 1 17 5 21 4 8 3 11 1 11 2 7 1 8v31l4 7 4 4 1 3v7l-2 6v9l5 23 6 21 4 18 6 15 2 11v5l-6 5-5 1h-28l-38 1-9-5-6-9-5-17-3-12-4-14-1-9-1-23-3-17-3-14-4-8-6-4-18-3-56-1-4-2-28 2-11 1-5 4-3 5-7 34v19l1 5v11l-2 10 2 12v12l-6 5h-25l-2-1h-8l-3 2-19 2h-16l-15-2-8-7-5-7-4-16 3-11 2-11 14-28 2-16v-19l5-23 5-14 3-12 1-21 5-37 7-45 2-24 1-4 2-34 4-12 6-12 3-21 4-25v-14l4-20v-12l2-6 1-19 4-13 2-9-1-6-1-1 1-10 6-32 1-8 2-58 2-12 4-8 7-7z" fill="#EC3C31"/>
<path transform="translate(1665,282)" d="m0 0h16l22 1 9 1 7 2 8-2 35 4 12 2 15 2 23 12 17 13 12 8 9 11 7 10 4 8 4 9 4 6 7 6 4 8 4 14 3 17 5 17 7 19 4 9 1 6-3 7-5 4-14 4h-19l-8-1-14 2h-7l-12 2h-21l-8-2-10-9-3-6-2-21-7-25-4-7-9-8-15-8-10-4h-21l-16 1-20 7-7 6-7 8-5 7-6 12-2 6v19l3 9 1 34 1 16 2 6 1 36 4 38v12l-1 14v12l-1 7v12l-1 3v10l2 14v16l-2 10v20l1 7-2 4v46l7 34 4 10 5 5 33 9 10 3h10l22-6 17-8 5-6 7-12 6-20 3-8 1-10-2-7 1-8 4-6 3-3 7-2h11l49 5 39 5 8 4 2 2v8l-5 14-6 18-6 25-10 29-7 14-9 10-6 10-11 12-6 10-10 8-21 12-19 7-23 4-10 3-5 1-23-3-7-2-78-10-9-3-7-4-9-8-11-7-8-8-6-11-9-11-7-8-7-12-2-3-2-10v-8l-4-10-4-9-2-9-3-24-5-21v-33l1-3 1-11v-10l-1-2v-6h2v-14l-2-11-2-8v-16l3-3-1-45-1-6-2-44 1-19-2-25 4-15v-8l-2-12v-13l2-13 2-19 4-24 6-21 4-18 7-14 10-17 9-10 7-8 9-8 16-12 9-8 16-8z" fill="#EC3C31"/>
<path transform="translate(1448,978)" d="m0 0h11l20 5 18 3 11-1 20-3 7-1 3 1 15 2 13 3 1 1v17l-2 20-1 19-3 15 1 11 2 8 1 53 3 49-1 5 3 17v79l1 8v15l-1 12 2 9v12l-1 1v5l4 5 1 20 1 38 3 5-1 31-3 5v21l4 33-1 4-1 1v22l1 9v13l-2 4 1 10 1 3 2 45 2 16v5l-7 6-10 3-5 1-20-1-11 1-2-1h-8l-16 4-6 1h-9l-10-2-9-2-7-4-4-7-1-4v-27l2-22v-9l-2-15-1-4v-7l1-2v-23l-2-22-1-21-1-120-6-11 1-9 1-4 2-40 1-6v-31l-4-12-1-2v-6l1-1v-38l-1-8-1-24 2-6v-16l-1-5-2-44-2-2-2-62-2-10v-29l3-8z" fill="#ED3D32"/>
<path transform="translate(911,1352)" d="m0 0h28l21 4 3 2 11 3 16 8 9 6 10 8 5 8 4 7 6 7 3 10 3 8 3 10v7l-3 9v9l4 9 2 4v12l-2 2 2 6v9h-3v4l3 1 1 54 2 7-1 9-1 32 1 19 1 5-1 1-3 19-3 11-3 4-3 10-4 8-5 3-6 7-8 6-12 10-17 8-28 6-11 2h-7l-1-1h-24l-7 1-11-4-15-9-9-2-3-2-9-2-10-5-4-5-8-13-3-7-1-11-2-36-1-3v-8l2-4-1-7-2-5-2-15-1-3-2-97-2-18-2-19-2-9v-13l6-21 7-13 7-9 13-10 7-6 19-10 10-4 10-1z" fill="#ED3D32"/>
<path transform="translate(962,957)" d="m0 0 6 1h30l20 1 6 3 4 6v12l-1 7-1 26-3 24v11l3 14 1 13v11l-1 6 1 6v10l-1 6-1 8v9l2 13-1 6-1 7 1 8v18l-1 8 2 7-2 3v6l1 2v9l-1 4v12l1 10 1 5h-2v14l2 5v12l2 15 1 3v10l1 10-5 5h-34l-5-1-1 1h-10l-8-6-11-23-6-10-6-8-3-12-8-16-8-11-12-26-9-19-9-16-6-12-6-10-3-10-5-8-9 1-2 2-1 12v17l1 12-5 8-1 7 3 20v48l2 19 3 12-2 10 4 11-1 5-36 2-2 1-18 2-9 2h-7l-5-5-3-6v-10l1-3v-7l-1-3v-7l1-2v-24l1-12v-11l-2-3v-34l-1-71-1-27-1-50-2-40-2-9-3-10 1-22 2-5 4-2h15l9 1h8l1 1h13l3-1h19l9 1 4 9 3 7 1 8 10 18 6 11 2 2 2 9 5 10 6 11 9 9 6 12 5 9 11 16 8 9 9 15 5 6 6 2 3-7v-11l-2-15-1-10 2-4v-16l-2-3-1-7v-27l-2-19-1-4-3-41 3-5z" fill="#ED3D32"/>
<path transform="translate(1750,1165)" d="m0 0 12 1 21 2 9 3 13 10 8 8 7 11 3 7 1 8v35l2 3 1 5v7l-2 3v8l1 1 1 8v11l-2 4v11l2 2v12l-1 6 1 91v28l-2 2v20l2 10v31l-1 67-7 15-7 10-6 8-8 6-3 1h-20l-26-1-14-4-9-5-10-9-6-5-4-11-5-13-8-17 1-7 4-10 2-4v-11l-3-9v-6l2-3v-18l-2-7 3-6v-14l3-14v-6l-2-6v-39l-2-23v-12l-3-6v-12l2-13-1-18 1-9v-27l-1-4v-17l2-10v-8l-1-3-1-17-1-3v-7l12-13 10-11 8-10 7-4z" fill="#FEFEFD"/>
<path transform="translate(441,1413)" d="m0 0 9 2 9 3 8 1 2-2 8 1 19 4 28 4 19 4 14-1h7l12 6 30 5 10 2 13 1 14-2 5 3 5 4h6l2 2 2 14 4 14 3 16 1 13 6 19 2 10 1 10v31l2 9 2 2v3h-20l-13-4-37 2-14 3h-12l-9-1-13 1h-12l-12-3-7-2-12 3-3 2-8-1-10-4h-10l-13 4h-7l-6-3-10-2-1-3 1-10-4-21-2-17v-25l1-11-3-27-4-14v-29l-3-9-1-6z" fill="#FEFEFD"/>
<path transform="translate(287,1060)" d="m0 0 9 1 7 3h24l11-4 16 3h8l7-2h7l5-1 2 1-2 5-4 8-1 6 2 6v10l-3 12-5 13-3 18-3 11 1 9 1 3v7l-12 34-3 11 4 9-1 6-10 25-1 14-3 3-13 4-35 7-27 4-15 4h-3l-3-12-1-6v-43l3-12v-19l-3-14-5-10v-19l1-4v-18l-4-16 1-7 2-5-2-12-1-4v-19l1-9h18l13 3h10z" fill="#FEFEFD"/>
<path transform="translate(1305,684)" d="m0 0 5 1 10 4 4 1 28 2 7 3 15 7 16 8 11 9 7 7 10 14 9 16 4 17 1 25-1 17-5 27-4 10-8 7-14 8-14 6-15 5-23 5h-19l-9 1h-21l-12-6-6-9-8-25 1-18 4-26 1-1v-33l-1-12v-13l-3-26v-7l4-10 6-8 9-4z" fill="#FEFEFD"/>
<path transform="translate(603,721)" d="m0 0h20v15l-2 11v6l4 12v19l-4 10-1 31-4 31-1 10v22l4 13v9l-2 18-2 5-4 6 1 10 3 15-2 7-3 3h-20l-11-4-8-2-13-2h-6l-2 1h-13l-8-4-3-1-15-1-4-2-1-7v-13l-3-17v-7l4-10 1-18 2-11 1-17-3-13 2-11v-10l-2-7 1-9 1-3 1-18 4-25v-8l-2-5 1-4 2-2 29-7 23-5 15-6 15-4z" fill="#FEFEFD"/>
<path transform="translate(336,733)" d="m0 0 5 1 4 15 5 33v13l-3 10 2 19 3 17v11l-4 13v11l2 10 2 5 1 9-2 8 1 8 4 10v13l-1 17 2 7v11l-6 2-20 4-14 4-13 3-22 1-17 3-5 1-2-2-2-9v-5l6-11-3-10-2-8v-17l2-8v-11l-2-9 1-8v-10l-1-3v-15l2-9 1-44-4-16 3-8v-11l-3-13v-10l2-7 7-6 12-5 11-1h31z" fill="#FEFEFD"/>
<path transform="translate(608,380)" d="m0 0h3l1 2 1 14-3 9v7l2 7v10l-1 5v8l2 6-1 11-1 4v8l3 14 5 11v16l-2 10v7l4 10-1 9-2 9v14l5 12v6l-4 7-1 7 2 3v11l-1 10 4 4v9l-1 1-16 1-10-1-15-2-10 1-10 2-4-8-1-4v-9l1-7-8-15-3-21-4-13-5-11-4-16-5-24-2-20-4-15-10-21v-8l1-8-6-8-3-3v-17l1-8-2-4v-3l16-2 16-6 3-1h9l25-5 24-1 9-2z" fill="#FEFEFD"/>
<path transform="translate(269,408)" d="m0 0 20 1 14 1h22l15-1 14 2 2 4 1 13-3 14-8 18 1 5v9l-7 14-2 11v14l1 2v9l-4 15-6 13-1 15-5 13-2 14-1 14-1 2-15-1-11 4-6 3-17 3h-16l-10 3h-6l-1-1v-17l-5-15 3-13v-20l2-11v-10l-2-12-3-7v-6l4-7 2-6-7-15 1-14 5-19v-13l-2-9-3-7 1-4 4-2 18-2z" fill="#FEFEFD"/>
<path transform="translate(515,1058)" d="m0 0h50l8 3 2 3 3 18 1 16v24l5 14 4 27v10l-3 7 1 9 4 25 5 14 1 5 1 36 3 8v5l-18 1-16 4h-16l-4-1h-34l-16 5-7 3h-12l-1-7 4-27 3-14 2-15 5-10 2-11v-34l6-11 2-4v-20l6-22 1-21 5-29 2-10z" fill="#FEFEFD"/>
<path transform="translate(1292,416)" d="m0 0h8l9 2 25 3 26 4 16 7 7 6 9 14 9 13 3 9 1 20-1 17-6 21-9 15-10 14-8 6-21 10-11 3-27 4-11 1-2 1h-7l-9-5-5-4-9-13-5-12v-14l2-5v-7l-2-4 1-5 2-2-2-9-11-25-1-3v-7l2-7 1-18 6-9 4-10 5-7 7-1z" fill="#FEFEFD"/>
<path transform="translate(1223,1162)" d="m0 0h8l14 4h27l9 4 11 10 8 7 7 8 5 8 3 11v14l3 19 1 2v8l-4 9-1 23-3 14-6 11-10 10-13 7-5 2-12 2-20 2-7 2-8 1h-14l-8-6-6-7-5-11-7-40-1-8v-20l2-14-2-17v-28l4-13 6-8 6-4z" fill="#FEFEFD"/>
<path transform="translate(978,465)" d="m0 0 4 1 5 6 4 15 3 20 3 13 1 22 4 16 5 19 3 15 7 28 7 30 3 12v7l-5 6-10 4-24 1-20 4-8 3-7-1-12-6-7-6-3-7v-15l6-35 5-25 3-11 3-16 5-10 1-4-1-5v-7l5-14 8-15 5-23 1-15 3-5z" fill="#FEFEFD"/>
<path transform="translate(904,1448)" d="m0 0h15l10 4 8 6 3 5 2 42v13l1 2v40l-1 4 1 1 1 14v25l-1 7-8 10-6 4h-26l-8-3-9-7-6-12 1-7 2-2-1-4-2-5 2-2-1-8-1-3 2-4v-13l-1-25-1-6v-58l7-8 11-8z" fill="#FEFEFD"/>
</svg>
